<svg xmlns="http://www.w3.org/2000/svg" viewBox="0 0 512 512"><circle cx="256" cy="256" r="256" fill="#ffffff"/><path d="M25.488-363.867L130.737-196.655L121.289-181.714L6.812-363.867L25.488-363.867ZM257.739 0L208.740-77.783L217.969-92.725L276.416 0L257.739 0ZM62.622-363.867L149.414-226.099L139.966-211.377L44.165-363.867L62.622-363.867ZM295.093 0L227.417-107.446L236.646-122.388L313.770 0L295.093 0ZM100.195-363.867L168.091-255.981L158.862-241.260L81.519-363.867L100.195-363.867ZM332.666 0L246.313-137.329L255.542-152.271L351.343 0L332.666 0ZM137.549-363.867L186.768-285.645L177.539-270.703L118.872-363.867L137.549-363.867ZM370.020 0L264.771-166.992L273.999-181.934L388.696 0L370.020 0ZM130.078 0L359.033-363.867L377.710-363.867L148.755 0L130.078 0ZM92.725 0L321.899-363.867L340.356-363.867L111.401 0L92.725 0ZM55.151 0L284.326-363.867L303.003-363.867L73.828 0L55.151 0ZM17.798 0L246.973-363.867L265.649-363.867L36.475 0L17.798 0Z" fill="#000000" transform="translate(58.24599885940552, 437.9335021972656)"/></svg>